<svg width="766" height="134" viewBox="0 0 766 134" fill="none" xmlns="http://www.w3.org/2000/svg">
<path d="M232.451 31.6778C232.377 32.6846 232.304 33.6914 232.205 34.7228C231.935 37.7187 231.592 40.7636 231.248 43.7841C230.634 49.1128 229.701 54.2697 228.473 59.1809C227.613 63.3064 226.435 67.1618 224.961 70.5997C223.316 74.4551 221.352 77.7947 219.166 80.4714C218.896 80.7906 218.626 81.1098 218.356 81.4291C217.987 81.822 217.644 82.2149 217.275 82.5587C216.219 83.59 215.163 84.4741 214.034 85.1616C213.027 85.8001 211.996 86.3158 210.964 86.6596C210.964 86.6596 210.817 86.7087 210.719 86.7333C207.723 87.8874 204.187 88.5995 200.38 88.7714C198.219 88.8697 195.96 88.796 193.627 88.5259C193.627 88.5259 192.964 88.4277 191.737 88.2803C189.33 87.9611 186.923 87.4208 184.64 86.5859C174.203 82.8288 152.79 68.5615 140.708 44.4717C127.669 18.491 116.275 17.7788 116.275 17.7788C116.275 17.7788 116.397 18.7857 116.324 20.4064C115.784 36.8837 111.756 64.7798 92.7742 86.193C115.341 81.8956 134.643 81.1099 142.746 80.9625C144.564 82.9516 146.847 85.0634 149.696 87.1998C77.3527 90.4167 33.0284 111.633 12.8921 124.133C12.843 124.133 12.8185 124.182 12.7693 124.206C4.54294 129.339 0.368346 132.973 0 133.292C1.86629 130.984 3.85536 128.774 5.9181 126.662C5.9181 126.662 5.94265 126.637 5.96721 126.613C9.52789 123.028 13.5306 119.614 17.9262 116.348C28.5837 108.49 41.6723 101.614 56.6517 95.9174C56.7008 95.9174 56.7744 95.8683 56.8236 95.8437C59.4265 94.8615 62.1032 93.9037 64.8289 92.9706C64.8289 92.9706 68.9544 91.3008 68.979 91.3008C68.979 91.3008 68.979 91.3008 69.0035 91.3008C70.6488 90.3676 72.2695 89.459 73.9394 88.5259C101.32 66.155 106.182 31.555 106.673 12.9167C106.673 12.8921 106.673 12.843 106.673 12.8185C106.87 4.98496 106.28 0 106.28 0C108.564 0.810362 110.774 1.71894 112.935 2.75031C127.104 9.47877 138.719 20.7256 146.332 34.6245C147.093 36.0242 147.83 37.4731 148.517 38.9219C154.484 50.0951 161.655 59.1073 171.035 67.5792C172.14 68.5861 173.319 69.5192 174.473 70.4278C175.038 70.8698 175.603 71.3118 176.192 71.7539C178.746 73.6447 181.374 75.4127 184.099 76.9844C184.247 77.0826 184.419 77.1808 184.591 77.2545C184.64 77.279 184.689 77.3036 184.738 77.3527C185.794 77.9421 186.85 78.5314 187.93 79.0717C189.968 80.1276 192.154 80.8152 194.413 81.0607H194.462C194.855 81.1098 195.248 81.1589 195.641 81.1589C196.23 81.1835 196.82 81.208 197.434 81.1589C199.693 81.0853 201.903 80.6678 204.015 79.9066C204.138 79.8575 204.26 79.8083 204.383 79.7592C209.736 77.7211 214.427 73.6201 217.693 68.1686C217.938 67.7757 218.159 67.3828 218.38 66.9653C220.05 62.7416 221.327 58.0514 222.113 53.0418C218.97 57.02 215.458 60.4579 211.627 63.2573C205.906 67.4565 199.545 70.1822 192.866 71.1154C191.466 71.3118 190.018 71.4346 188.593 71.4592C188.421 71.3118 188.274 71.189 188.102 71.0417C185.696 69.0281 183.657 66.7935 182.11 64.4606C185.254 64.2396 188.348 63.6993 191.344 62.889C194.585 62.005 197.728 60.7771 200.724 59.2546C208.828 55.1537 215.949 48.8672 221.401 40.9846C221.916 40.2234 222.432 39.4622 222.923 38.6764C224.568 36.0734 226.042 33.2985 227.319 30.4008C227.466 30.0816 227.589 29.7869 227.712 29.4677C229.75 24.6301 231.223 19.4241 232.058 13.9235C232.942 19.4978 232.869 25.465 232.402 31.5796L232.451 31.6778Z" fill="url(#paint0_linear_191_1987)"/>
<path d="M318.252 13.2848H306.932L292.64 55.8657L278.496 13.2848H267.175L256.616 74.3321H267.936L274.64 35.7785L287.483 74.3321H297.723L310.689 35.7785L317.246 74.3321H328.468L318.228 13.2848H318.252Z" fill="#A7DCDF"/>
<path d="M375.813 13.2848H364.026L340.476 74.3321H352.558L361.84 50.4387H361.791L369.968 29.492L378.097 50.4387H377.998L382.345 61.7592H382.394L387.182 74.3321H399.264L375.788 13.2848H375.813Z" fill="#A7DCDF"/>
<path d="M567.279 13.2848H555.492L531.943 74.3321H544.024L553.307 50.4387H553.258L561.435 29.492L569.563 50.4387H569.465L573.811 61.7592H573.86L578.649 74.3321H590.731L567.255 13.2848H567.279Z" fill="#A7DCDF"/>
<path d="M453.214 13.2848V53.4591L427.111 13.2848H415.962V74.3321H427.578V34.2805L453.656 74.3321H464.83V13.2848H453.214Z" fill="#A7DCDF"/>
<path d="M483.959 13.2848V24.7281H494.789V74.3075H506.576V24.7281H517.7V13.2848H483.959Z" fill="#A7DCDF"/>
<path d="M622.727 45.9939C627.86 45.9694 631.862 45.3064 634.76 44.0294C637.658 42.7525 639.892 40.8371 641.464 38.3078C643.036 35.7785 643.797 32.8563 643.797 29.5412C643.797 25.5385 642.667 22.1988 640.408 19.473C638.149 16.7472 635.202 14.9792 631.568 14.1443C629.161 13.5795 624.569 13.3094 617.792 13.3094H605.636V74.3566H611.726V46.0185H615.189L637.142 74.3566H644.681L622.727 46.0185V45.9939ZM611.726 40.0267V19.2765H622.482C626.656 19.2765 629.652 19.6449 631.469 20.357C633.262 21.0692 634.735 22.2725 635.84 23.9423C636.946 25.6121 637.486 27.4784 637.486 29.5166C637.486 31.5548 636.946 33.5193 635.84 35.2137C634.76 36.9081 633.213 38.1604 631.273 38.9217C629.308 39.7075 626.313 40.0758 622.236 40.0758L611.726 40.0022V40.0267Z" fill="#A7DCDF"/>
<path d="M686.918 13.2848H685.42L656.591 74.3321H663.393L672.896 54.2449L675.696 48.3514L686.157 26.2506L696.569 48.3514L708.798 74.3321H715.379L686.918 13.2848Z" fill="#A7DCDF"/>
<path d="M758.967 13.2848L743.594 38.4551L727.976 13.2848H720.953L740.647 45.159V74.3321H746.664V45.159L765.99 13.2848H758.942H758.967Z" fill="#A7DCDF"/>
<path d="M340.452 98.9623C339.052 96.8013 337.087 95.2789 334.583 94.3948C332.839 93.7809 330.04 93.4617 326.184 93.4617H320.831V119.246H329.033C332.25 119.246 334.754 118.779 336.523 117.846C338.315 116.913 339.764 115.464 340.869 113.5C341.974 111.535 342.539 109.276 342.539 106.673C342.539 103.677 341.827 101.099 340.427 98.9377L340.452 98.9623ZM338.291 112.763C337.186 114.408 335.663 115.538 333.723 116.176C332.348 116.618 329.868 116.839 326.307 116.839H323.336V96.0155H325.153C328.861 96.0155 331.513 96.2611 333.134 96.7522C335.27 97.4152 336.965 98.6185 338.168 100.362C339.371 102.13 339.985 104.242 339.985 106.747C339.985 109.251 339.42 111.118 338.315 112.763H338.291Z" fill="#A7DCDF"/>
<path d="M349.341 93.4617V119.246H351.919V93.4617H349.341Z" fill="#A7DCDF"/>
<path d="M375.248 106.894V109.374H383.474C383.131 111.756 382.05 113.696 380.208 115.194C378.367 116.692 376.132 117.429 373.48 117.429C371.294 117.429 369.281 116.938 367.439 115.931C365.597 114.924 364.173 113.549 363.142 111.805C362.11 110.062 361.57 108.22 361.57 106.28C361.57 104.34 362.061 102.597 363.068 100.902C364.075 99.2079 365.475 97.8573 367.316 96.8505C369.133 95.8683 371.073 95.3526 373.087 95.3526C374.708 95.3526 376.378 95.7209 378.097 96.4576C379.816 97.1943 381.387 98.2502 382.811 99.6745L384.8 97.7836C382.959 96.0401 381.092 94.7877 379.153 93.9774C377.237 93.1916 375.174 92.7987 372.989 92.7987C370.288 92.7987 367.881 93.388 365.745 94.5667C363.608 95.7454 361.914 97.3907 360.686 99.5026C359.458 101.614 358.844 103.874 358.844 106.329C358.844 109.62 359.9 112.518 362.037 114.998C364.812 118.239 368.593 119.86 373.357 119.86C377.286 119.86 380.429 118.681 382.762 116.348C385.095 114.015 386.298 110.848 386.298 106.845H375.174L375.248 106.894Z" fill="#A7DCDF"/>
<path d="M393.052 93.4617V119.246H395.63V93.4617H393.052Z" fill="#A7DCDF"/>
<path d="M401.155 93.4617V95.991H406.901V119.246H409.529V95.991H415.275V93.4617H401.155Z" fill="#A7DCDF"/>
<path d="M431.679 93.4617H431.04L418.86 119.246H421.733L425.761 110.749L426.939 108.269L431.36 98.9377L435.755 108.269L440.912 119.246H443.687L431.679 93.4617Z" fill="#A7DCDF"/>
<path d="M452.429 116.766V93.4617H449.85V119.246H462.35V116.766H452.429Z" fill="#A7DCDF"/>
<path d="M491.866 109.104C491.031 107.827 489.509 106.354 487.274 104.709C485.383 103.309 484.278 102.449 483.935 102.13C483.321 101.516 482.879 100.927 482.658 100.411C482.412 99.8956 482.314 99.3308 482.314 98.7905C482.314 97.8574 482.658 97.0962 483.296 96.4577C483.959 95.8192 484.794 95.5245 485.85 95.5245C486.66 95.5245 487.397 95.721 488.085 96.1384C488.772 96.5559 489.607 97.3908 490.565 98.6923L492.677 97.0961C491.498 95.4754 490.368 94.3704 489.312 93.781C488.257 93.1917 487.127 92.8724 485.899 92.8724C484.745 92.8724 483.689 93.1426 482.707 93.6583C481.725 94.1985 480.963 94.9106 480.448 95.8438C479.907 96.7769 479.637 97.7837 479.637 98.9133C479.637 100.338 480.079 101.639 481.012 102.867C481.528 103.579 482.879 104.758 485.015 106.378C487.151 107.999 488.625 109.374 489.435 110.529C490.025 111.363 490.319 112.198 490.319 113.082C490.319 113.844 490.123 114.556 489.73 115.243C489.337 115.931 488.748 116.471 487.986 116.864C487.225 117.257 486.415 117.478 485.555 117.478C483.542 117.478 481.749 116.054 480.202 113.23L478.016 114.556C479.097 116.52 480.276 117.92 481.528 118.755C482.805 119.59 484.229 120.007 485.776 120.007C487.814 120.007 489.533 119.32 490.958 117.945C492.382 116.569 493.094 114.949 493.094 113.082C493.094 111.781 492.677 110.479 491.842 109.202L491.866 109.104Z" fill="#A7DCDF"/>
<path d="M522.807 96.7278C520.18 94.1248 516.914 92.8233 513.009 92.8233C510.603 92.8233 508.368 93.4372 506.305 94.6159C504.243 95.8192 502.597 97.4644 501.394 99.5763C500.191 101.688 499.602 103.996 499.602 106.477C499.602 110.185 500.928 113.352 503.555 115.98C506.183 118.608 509.424 119.909 513.23 119.909C517.037 119.909 520.204 118.583 522.832 115.955C525.459 113.328 526.761 110.136 526.761 106.354C526.761 102.572 525.435 99.3308 522.807 96.7278ZM522.66 111.953C521.702 113.647 520.376 114.973 518.682 115.931C516.987 116.913 515.121 117.38 513.132 117.38C510.136 117.38 507.582 116.324 505.446 114.212C503.334 112.1 502.254 109.522 502.254 106.452C502.254 104.389 502.745 102.499 503.702 100.829C504.66 99.1343 506.011 97.8083 507.705 96.8014C509.424 95.7946 511.217 95.3035 513.132 95.3035C515.048 95.3035 516.914 95.7946 518.633 96.8014C520.376 97.7837 521.702 99.1097 522.66 100.78C523.618 102.449 524.084 104.291 524.084 106.329C524.084 108.367 523.593 110.258 522.66 111.953Z" fill="#A7DCDF"/>
<path d="M536.657 116.766V93.4617H534.079V119.246H546.578V116.766H536.657Z" fill="#A7DCDF"/>
<path d="M567.377 93.4613V109.03C567.377 111.068 567.279 112.419 567.107 113.057C566.862 113.966 566.469 114.752 565.953 115.39C565.438 116.029 564.774 116.544 563.989 116.888C563.203 117.256 562.392 117.428 561.533 117.428C560.551 117.428 559.568 117.207 558.611 116.741C557.653 116.274 556.916 115.709 556.45 115.022C555.983 114.334 555.689 113.475 555.566 112.468C555.492 112.026 555.468 110.872 555.468 109.006V93.4367H552.889V109.006C552.889 111.633 553.037 113.426 553.356 114.432C553.871 116.078 554.854 117.379 556.327 118.386C557.8 119.368 559.593 119.884 561.68 119.884C563.596 119.884 565.216 119.368 566.567 118.312C567.918 117.256 568.826 116.029 569.268 114.604C569.71 113.18 569.956 111.338 569.956 109.03V93.4613H567.377Z" fill="#A7DCDF"/>
<path d="M575.898 93.4617V95.991H581.645V119.246H584.272V95.991H590.018V93.4617H575.898Z" fill="#A7DCDF"/>
<path d="M595.544 93.4617V119.246H598.122V93.4617H595.544Z" fill="#A7DCDF"/>
<path d="M628.253 96.7278C625.625 94.1248 622.359 92.8233 618.455 92.8233C616.048 92.8233 613.814 93.4372 611.726 94.6159C609.664 95.8192 608.018 97.4644 606.815 99.5763C605.612 101.688 605.022 103.996 605.022 106.477C605.022 110.185 606.349 113.352 608.976 115.98C611.604 118.608 614.821 119.909 618.651 119.909C622.482 119.909 625.625 118.583 628.253 115.955C630.88 113.328 632.182 110.136 632.182 106.354C632.182 102.572 630.856 99.3308 628.228 96.7278H628.253ZM628.106 111.953C627.148 113.647 625.822 114.973 624.127 115.931C622.433 116.913 620.567 117.38 618.578 117.38C615.582 117.38 613.028 116.324 610.891 114.212C608.78 112.1 607.699 109.522 607.699 106.452C607.699 104.389 608.19 102.499 609.123 100.829C610.081 99.1343 611.432 97.8083 613.126 96.8014C614.821 95.7946 616.638 95.3035 618.553 95.3035C620.468 95.3035 622.335 95.7946 624.078 96.8014C625.822 97.7837 627.148 99.1097 628.106 100.78C629.063 102.449 629.53 104.291 629.53 106.329C629.53 108.367 629.063 110.258 628.106 111.953Z" fill="#A7DCDF"/>
<path d="M657.279 93.4617V113.23L640.114 93.4617H639.549V119.246H642.201V99.7236L659.218 119.246H659.808V93.4617H657.279Z" fill="#A7DCDF"/>
<path d="M679.429 109.104C678.594 107.827 677.071 106.354 674.837 104.709C672.946 103.309 671.841 102.449 671.497 102.13C670.883 101.516 670.441 100.927 670.22 100.411C669.999 99.8956 669.876 99.3308 669.876 98.7905C669.876 97.8574 670.195 97.0962 670.858 96.4577C671.521 95.8192 672.356 95.5245 673.412 95.5245C674.223 95.5245 674.959 95.721 675.647 96.1384C676.334 96.5559 677.145 97.3908 678.127 98.6923L680.239 97.0961C679.06 95.4754 677.931 94.3704 676.875 93.781C675.819 93.1917 674.689 92.8724 673.461 92.8724C672.307 92.8724 671.251 93.1426 670.294 93.6583C669.311 94.1985 668.55 94.9106 668.034 95.8438C667.494 96.7769 667.224 97.7837 667.224 98.9133C667.224 100.338 667.666 101.639 668.599 102.867C669.115 103.579 670.465 104.758 672.602 106.378C674.738 107.999 676.212 109.374 677.022 110.529C677.611 111.363 677.906 112.198 677.906 113.082C677.906 113.844 677.71 114.556 677.317 115.243C676.924 115.931 676.334 116.471 675.573 116.864C674.812 117.257 674.002 117.478 673.142 117.478C671.128 117.478 669.336 116.054 667.789 113.23L665.603 114.556C666.684 116.52 667.862 117.92 669.115 118.755C670.392 119.59 671.816 120.007 673.363 120.007C675.401 120.007 677.12 119.32 678.544 117.945C679.969 116.569 680.681 114.949 680.681 113.082C680.681 111.781 680.263 110.479 679.429 109.202V109.104Z" fill="#A7DCDF"/>
<defs>
<linearGradient id="paint0_linear_191_1987" x1="-0.0245564" y1="66.6707" x2="232.77" y2="66.6707" gradientUnits="userSpaceOnUse">
<stop stop-color="#8FD4D8"/>
<stop offset="0.25" stop-color="#94D5D9"/>
<stop offset="0.57" stop-color="#A3D9DC"/>
<stop offset="0.91" stop-color="#BCDFE2"/>
<stop offset="1" stop-color="#C4E2E4"/>
</linearGradient>
</defs>
</svg>
